<svg width="42" height="33" viewBox="0 0 42 33" fill="none" xmlns="http://www.w3.org/2000/svg">
<path d="M12 1.5H30V24.5C30 27.2614 27.7614 29.5 25 29.5H17C14.2386 29.5 12 27.2614 12 24.5V1.5Z" fill="#388CD0"/>
<path d="M9.47157 3.78585C10.1373 1.97113 12.1482 1.03971 13.9629 1.70547C15.7776 2.37124 16.709 4.38207 16.0433 6.1968L7.77718 28.7284C7.11142 30.5431 5.10058 31.4745 3.28586 30.8088C1.47113 30.143 0.539709 28.1322 1.20547 26.3174L9.47157 3.78585Z" fill="#388CD0"/>
<path d="M27.0539 5.94531C26.4718 4.10202 27.4943 2.13591 29.3376 1.55387C31.1809 0.971835 33.147 1.99428 33.729 3.83757L40.9555 26.7237C41.5376 28.567 40.5151 30.5331 38.6719 31.1152C36.8286 31.6972 34.8624 30.6748 34.2804 28.8315L27.0539 5.94531Z" fill="#388CD0"/>
</svg>
