<svg width="28" height="33" viewBox="0 0 28 33" fill="none" xmlns="http://www.w3.org/2000/svg">
<path d="M15.1801 5.71728C14.7763 3.51963 16.2391 1.46093 18.4472 1.11904C20.6553 0.777153 22.7727 2.28155 23.1764 4.4792L27.2689 26.7551C27.6727 28.9527 26.21 31.0114 24.0018 31.3533C21.7937 31.6952 19.6764 30.1908 19.2726 27.9931L15.1801 5.71728Z" fill="#4688A9"/>
<path d="M4.82192 5.00704C5.22553 2.80936 7.34278 1.30485 9.55093 1.64662C11.7591 1.98839 13.2219 4.04702 12.8183 6.2447L8.72721 28.5207C8.32359 30.7184 6.20634 32.2229 3.9982 31.8812C1.79005 31.5394 0.327194 29.4808 0.73081 27.2831L4.82192 5.00704Z" fill="#4688A9"/>
<path d="M5.52297 3.56288C5.52297 2.16279 6.65797 1.02779 8.05806 1.02779H15.4643H18.4522C19.8523 1.02779 20.9873 2.16279 20.9873 3.56288C20.9873 4.96297 19.8523 6.09797 18.4522 6.09797H8.05806C6.65797 6.09797 5.52297 4.96297 5.52297 3.56288Z" fill="#4688A9"/>
</svg>
